# xmcd
#
# Track frame offsets: 
#        182
#        59517
#        113867
#        171300
#
# Disc length: 2938 seconds
#
# Revision: 3
# Processed by: cddbd v1.5.1PL2 Copyright (c) Steve Scherf et al.
# Submitted via: ExactAudioCopy v0.95b4
#
DISCID=340b7804
DTITLE=Staré sedlo - Country ze Starého sedla
DYEAR=1900
DGENRE=Country
TTITLE0=Smìs 1-Tisíc mil, Èervená øeka, Na vánoce ráno, Vítr to ví, Mo
TTITLE0=ntgomery, Táta, Rodné údolí, Hej,hosi,hej
TTITLE1=Smìs 2-Ta zem je tvá zem, Veï mì dál, cesto má, Mám radost, Zl
TTITLE1=até støevíèky, Jaro na Aljasku, Plavci, Neèekej uz dál, Teèe v
TTITLE1=oda
TTITLE2=Smìs 3-Panenka, Severní vítr, Oveèka, El Passo, Cizinec, Pár c
TTITLE2=igaret, Uz koníèek pádí
TTITLE3=Smìs 4-Rocky top, Waterloo, Jó, tøesnì zrály, Staré sedlo, Az 
TTITLE3=se má lod zpátky vrátí, Lodní zvon zvoní, Èerná a bílá noc, Ve
TTITLE3=jpl
EXTD=
EXTT0=
EXTT1=
EXTT2=
EXTT3=
PLAYORDER=
